# xmcd
# 
# Track frame offsets:
#     150
#     15415
#     30310
#     48412
#     63685
#     83497
#     104765
#     122380
#     136935
#     155910
#     178270
#     196100
# 
# Disc length: 2786
# 
# Revision: 18
# Processed by: cddbd v1.5.2PL0 Copyright (c) Steve Scherf et al.
# Submitted via: fre:ac v1.0.31
# 
DISCID=990ae00c
DTITLE=Gloria Estefan - Hold Me, Thrill Me, Kiss Me
DYEAR=1994
DGENRE=Rock/Pop
TTITLE0=Hold Me, Thrill Me, Kiss Me
TTITLE1=How Can I Be Sure
TTITLE2=Everlasting Love
TTITLE3=Traces
TTITLE4=Don't Let The Sun Catch You Crying
TTITLE5=You've Made Me So Very Happy
TTITLE6=Turn The Beat Around
TTITLE7=Breaking Up Is Hard To Do
TTITLE8=Love On A Two Way Street
TTITLE9=Cherchez La Femme
TTITLE10=It's Too Late
TTITLE11=Goodnight My Love
EXTD=
EXTT0=
EXTT1=
EXTT2=
EXTT3=
EXTT4=
EXTT5=
EXTT6=
EXTT7=
EXTT8=
EXTT9=
EXTT10=
EXTT11=
PLAYORDER=
